<svg
                width="7"
                height="5"
                viewBox="0 0 7 5"
                fill="none"
                xmlns="http://www.w3.org/2000/svg"
              >
                <path
                  d="M6.93006 0.879695L6.57938 0.529042C6.53265 0.482217 6.47883 0.458878 6.41797 0.458878C6.35726 0.458878 6.30346 0.482217 6.25673 0.529042L3.50004 3.28559L0.743462 0.529116C0.69671 0.48229 0.642908 0.458951 0.582128 0.458951C0.521323 0.458951 0.46752 0.48229 0.420793 0.529116L0.0701649 0.879793C0.0233391 0.92652 0 0.980323 0 1.04113C0 1.10188 0.0234129 1.15569 0.0701649 1.20241L3.3387 4.47102C3.38543 4.51778 3.43926 4.54114 3.50004 4.54114C3.56082 4.54114 3.61455 4.51778 3.66125 4.47102L6.93006 1.20241C6.97678 1.15566 7 1.10186 7 1.04113C7 0.980323 6.97678 0.92652 6.93006 0.879695Z"
                  fill="#110B56"
                />
              </svg>