<svg width="5" height="7" viewBox="0 0 5 7" fill="none" xmlns="http://www.w3.org/2000/svg">
<path d="M0.879694 0.0699429L0.529042 0.420619C0.482216 0.467347 0.458877 0.521175 0.458877 0.582028C0.458877 0.642735 0.482216 0.696538 0.529042 0.743265L3.28559 3.49996L0.529116 6.25654C0.48229 6.30329 0.458951 6.35709 0.458951 6.41787C0.458951 6.47868 0.48229 6.53248 0.529116 6.57921L0.879793 6.92984C0.92652 6.97666 0.980323 7 1.04113 7C1.10188 7 1.15569 6.97659 1.20241 6.92984L4.47102 3.6613C4.51778 3.61457 4.54114 3.56074 4.54114 3.49996C4.54114 3.43918 4.51778 3.38545 4.47102 3.33875L1.20241 0.0699429C1.15566 0.0232157 1.10186 -2.81056e-08 1.04113 -2.5451e-08C0.980323 -2.27931e-08 0.92652 0.0232158 0.879694 0.0699429Z" fill="#006FBB"/>
</svg>
