<svg width="5" height="7" viewBox="0 0 5 7" fill="none" xmlns="http://www.w3.org/2000/svg">
<path d="M4.1203 6.93006L4.47096 6.57938C4.51778 6.53265 4.54112 6.47883 4.54112 6.41797C4.54112 6.35726 4.51778 6.30346 4.47096 6.25673L1.71441 3.50004L4.47088 0.743462C4.51771 0.69671 4.54105 0.642908 4.54105 0.582128C4.54105 0.521323 4.51771 0.46752 4.47088 0.420793L4.12021 0.0701648C4.07348 0.0233391 4.01968 -2.27931e-08 3.95887 -2.5451e-08C3.89812 -2.81067e-08 3.84431 0.0234128 3.79759 0.0701648L0.528976 3.3387C0.482224 3.38543 0.45886 3.43926 0.45886 3.50004C0.45886 3.56082 0.482224 3.61455 0.528976 3.66125L3.79759 6.93006C3.84434 6.97678 3.89814 7 3.95887 7C4.01968 7 4.07348 6.97678 4.1203 6.93006Z" fill="#C4CDD5"/>
</svg>
