<svg width="20" height="20" viewBox="0 0 20 20" fill="none" xmlns="http://www.w3.org/2000/svg">
<path d="M10.0455 0C10.0402 0 10.0295 0 10.0134 0C4.59048 0 0.180359 4.41012 0.180359 9.83301C0.180359 12.0461 0.935921 14.1949 2.31844 15.9257L0.887694 19.2534C0.769805 19.5267 0.898411 19.8429 1.16634 19.9554C1.2628 19.9983 1.36997 20.009 1.47178 19.9929L6.71785 19.0712C7.76813 19.4517 8.872 19.6446 9.98659 19.6392C15.4095 19.6392 19.8196 15.2291 19.8196 9.80622C19.8303 4.3994 15.4524 0.00535859 10.0455 0ZM6.68034 7.85569H9.57398C9.8687 7.85569 10.1098 8.09683 10.1098 8.39155C10.1098 8.68627 9.8687 8.92741 9.57398 8.92741H6.68034C6.38561 8.92741 6.14448 8.68627 6.14448 8.39155C6.14448 8.09683 6.38561 7.85569 6.68034 7.85569ZM13.325 11.6067H6.68034C6.38561 11.6067 6.14448 11.3656 6.14448 11.0708C6.14448 10.7761 6.38561 10.535 6.68034 10.535H13.325C13.6197 10.535 13.8609 10.7761 13.8609 11.0708C13.8609 11.3656 13.6197 11.6067 13.325 11.6067Z" fill="#637381"/>
</svg>
