<svg width="20" height="20" viewBox="0 0 20 20" fill="none" xmlns="http://www.w3.org/2000/svg">
<path d="M19.817 9.24389L12.0442 1.47077C10.9169 0.343809 9.08325 0.343809 7.9559 1.47077L0.183168 9.24389C-0.0609747 9.48803 -0.0609747 9.88374 0.183168 10.1279C0.426921 10.372 0.823018 10.372 1.06677 10.1279L1.56248 9.63217V17.5776C1.56248 18.57 2.36698 19.3744 3.35937 19.3744H6.4844C6.70015 19.3744 6.87503 19.1996 6.87503 18.9838V13.2025C6.87503 12.1238 7.74949 11.2494 8.82817 11.2494H11.1719C12.2506 11.2494 13.1251 12.1238 13.1251 13.2025V18.9838C13.1251 19.1996 13.3 19.3744 13.5157 19.3744H16.6408C17.6331 19.3744 18.4376 18.57 18.4376 17.5776V9.63217L18.9334 10.1279C19.0552 10.2498 19.2154 10.3111 19.3752 10.3111C19.5349 10.3111 19.6951 10.2498 19.817 10.1279C20.0611 9.88374 20.0611 9.48803 19.817 9.24389Z" fill="#637381"/>
</svg>
