<svg width="20" height="20" viewBox="0 0 20 20" fill="none" xmlns="http://www.w3.org/2000/svg">
<path d="M9.15408 20C10.6633 20 11.9258 18.9241 12.2158 17.5H6.09241C6.38248 18.9241 7.64499 20 9.15408 20Z" fill="black"/>
<path d="M14.9974 9.99927C14.994 9.99927 14.9907 10 14.9873 10C11.7715 10 9.15405 7.3833 9.15405 4.16675C9.15405 3.2825 9.35745 2.44662 9.71161 1.69498C9.5282 1.67758 9.34235 1.66675 9.15405 1.66675C5.93246 1.66675 3.32077 4.27829 3.32077 7.50003V9.82333C3.32077 11.4725 2.59827 13.0292 1.33072 14.1008C0.908203 14.4617 0.720673 15.0367 0.872345 15.5976C1.04904 16.25 1.69403 16.6667 2.37076 16.6667H15.9332C16.6432 16.6667 17.3125 16.2067 17.4565 15.5109C17.5682 14.9726 17.3766 14.435 16.9591 14.0842C15.7474 13.0684 15.0465 11.5758 14.9974 9.99927Z" fill="black"/>
<path d="M19.1541 4.16672C19.1541 6.4679 17.2887 8.33328 14.9874 8.33328C12.6862 8.33328 10.8208 6.4679 10.8208 4.16672C10.8208 1.86554 12.6862 0 14.9874 0C17.2887 0 19.1541 1.86554 19.1541 4.16672Z" fill="#F52D56"/>
</svg>
